<svg width="141" height="141" viewBox="0 0 141 141" fill="none" xmlns="http://www.w3.org/2000/svg">
<path d="M134.91 69.67C134.91 56.4459 130.988 43.5188 123.641 32.5235C116.294 21.5282 105.852 12.9586 93.6339 7.89846C81.4163 2.83828 67.9724 1.51481 55.0026 4.09543C42.0327 6.67605 30.1194 13.0448 20.7693 22.3964C11.4192 31.7479 5.05216 43.6622 2.47348 56.6324C-0.105199 69.6026 1.22028 83.0463 6.28229 95.2631C11.3443 107.48 19.9155 117.921 30.9119 125.267C41.9082 132.612 54.8359 136.532 68.06 136.53C76.8401 136.531 85.5344 134.803 93.6463 131.443C101.758 128.083 109.129 123.158 115.337 116.949C121.545 110.741 126.468 103.369 129.827 95.257C133.185 87.1446 134.913 78.4501 134.91 69.67ZM68.06 17.73C72.5107 17.7293 76.9433 18.2972 81.25 19.42L73.1 38.61C59.65 33.61 46.55 30.75 35.64 30.51H34C43.4278 22.2604 55.5325 17.7185 68.06 17.73ZM68.06 121.61C63.5783 121.623 59.114 121.051 54.78 119.91L60.78 105.77C58.48 104.923 56.1733 104.007 53.86 103.02C51.54 102.02 49.27 101.02 47.06 99.95L41.06 114.07C33.8363 109.664 27.7949 103.564 23.4581 96.2981C19.1214 89.0324 16.6199 80.8196 16.17 72.37L17.35 73.58C26.45 82.58 40.17 91.24 56 98C71.83 104.76 87.61 108.59 100.4 108.87H102.17C92.7321 117.131 80.6025 121.661 68.06 121.61ZM85.73 60.61C94.88 65.45 102.63 70.88 108.19 76.39C114.58 82.73 116.55 87.86 115.67 89.93C114.79 92 109.73 94.15 100.73 93.93C89.79 93.68 76 90.25 61.84 84.24C47.68 78.23 35.63 70.7 27.86 63C21.47 56.65 19.51 51.53 20.39 49.46C21.27 47.39 26.31 45.24 35.32 45.46C44.33 45.68 55.6 48.1 67.27 52.39L57.17 76.14C57.1375 76.1831 57.1107 76.2302 57.09 76.28C59.29 77.34 61.56 78.38 63.88 79.37C66.2 80.36 68.52 81.26 70.82 82.11L86.83 44.43L95 25.24C98.5652 27.4065 101.859 29.9915 104.81 32.94C113.918 42.0124 119.311 54.1591 119.93 67C119.53 66.58 119.12 66.17 118.69 65.73C111.9 59 102.51 52.46 91.57 46.73L85.73 60.61Z" fill="#2DB67E"/>
</svg>
